# xmcd
#
# Track frame offsets:
#	150
#	15428
#	27043
#	39445
#	52417
#	69857
#	82566
#	98443
#	105964
#	120825
#
# Disc length: 1672 seconds
#
# Revision: 0
# Processed by: cddbd v1.5.1PL2 Copyright (c) Steve Scherf et al.
# Submitted via: dBpowerAMP V4.0
#
DISCID=5c06860a
DTITLE=Various Artist - The American Cowboy (A Fast Livin' Slow Dyin' Breed)
DYEAR=2002
DGENRE=Country
TTITLE0=Larrry Mahan - A Fast Livin', Slow Dyin' Breed
TTITLE1=Fred Whitfield - Calf Ropin' Son-Of-A-Gun
TTITLE2=Janet Stover - Five Year Old Cowboy
TTITLE3=Speed Williams and Rich Skelton - Team Ropers
TTITLE4=Sherry Cervi - Rodeo Wind (In Memory of Mike Cervi Jr.)
TTITLE5=Rope and Candice Myers - Still Holdin' On
TTITLE6=Monty Henson - Nuevo Laredo
TTITLE7=Donnie Gay - God Bless the Rodeo Clown
TTITLE8=Ronnie Twist and Larry Mahan - He Didn't Hear The Thunder (In Memory of Lane Frost)
TTITLE9=Dan Mortensen - Cowboy's Prayer
EXTD=
EXTT0=
EXTT1=
EXTT2=
EXTT3=
EXTT4=
EXTT5=
EXTT6=
EXTT7=
EXTT8=
EXTT9=
PLAYORDER=
